<svg width="20" height="19" viewBox="0 0 20 19" fill="none" xmlns="http://www.w3.org/2000/svg">
<path fill-rule="evenodd" clip-rule="evenodd" d="M9.72728 18.9088C7.85822 18.9088 6.98963 18.636 5.47985 17.5446C4.52485 18.7724 1.50072 19.732 1.36882 18.0903C1.36882 16.8579 1.09597 15.8165 0.786727 14.6796C0.418382 13.2789 0 11.7191 0 9.45898C0 4.06099 4.42936 0 9.67727 0C14.9297 0 19.0453 4.26109 19.0453 9.50899C19.0629 14.6757 14.894 18.8813 9.72728 18.9088ZM9.8046 4.66581C7.24886 4.53394 5.257 6.30296 4.8159 9.07698C4.45209 11.3735 5.09785 14.1703 5.6481 14.3158C5.91186 14.3795 6.57581 13.8428 6.98963 13.429C7.67393 13.9017 8.47079 14.1857 9.29983 14.2521C11.948 14.3795 14.2108 12.3635 14.3886 9.71821C14.4921 7.06733 12.4531 4.82208 9.8046 4.67037V4.66581Z" fill="#FFFEFD"/>
</svg>
